<svg xmlns="http://www.w3.org/2000/svg" width="1024" height="856" viewBox="0 0 1024 856" version="1.1">
	<rect x="0" y="0" width="100%" height="100%" fill="#ffffff" />
	<path d="M 672 105.551 C 649.725 107.946, 596.850 113.533, 554.500 117.965 C 512.150 122.397, 464.675 127.367, 449 129.009 C 433.325 130.652, 405.425 133.570, 387 135.494 C 303.339 144.231, 305.777 143.924, 301 146.341 C 296.004 148.870, 292.533 153.308, 290.948 159.195 C 289.730 163.716, 291.707 185.253, 304.011 301.500 C 305.641 316.900, 309.888 358.300, 313.449 393.500 C 340.346 659.366, 339.146 648.405, 341.952 653.907 C 344.762 659.414, 350.715 663.233, 357.310 663.760 C 361.775 664.117, 388.817 661.452, 476.500 652.015 C 486.400 650.950, 503.500 649.136, 514.500 647.985 C 525.500 646.833, 544.625 644.804, 557 643.474 C 605.022 638.315, 696.219 628.705, 742.500 623.927 C 758.450 622.280, 772.998 620.524, 774.828 620.025 C 779.583 618.729, 784.698 614.512, 787.009 609.982 C 789.682 604.744, 789.590 597.252, 786.495 568 C 781.912 524.696, 756.469 272.793, 754.476 251 C 754.149 247.425, 752.788 234.600, 751.452 222.500 C 750.116 210.400, 748.104 190.600, 746.982 178.500 C 743.768 143.835, 740.995 118.828, 739.912 114.737 C 738.690 110.120, 734.133 104.766, 729.593 102.611 C 724.674 100.277, 717.764 100.630, 672 105.551 M 250.769 212.005 C 226.887 217.081, 224.280 218.111, 219.596 224.320 C 216.741 228.103, 214.919 234.209, 215.553 237.867 C 216.693 244.440, 227.490 301.497, 231.001 319.500 C 233.147 330.500, 237.643 353.675, 240.992 371 C 247.934 406.904, 258.640 461.961, 268.895 514.500 C 276.094 551.383, 283.654 590.776, 294.036 645.500 C 306.930 713.463, 307.748 717.181, 310.744 721.443 C 314.012 726.093, 318.609 729.014, 324.292 730.053 C 328.809 730.879, 329.437 730.779, 415.500 715.504 C 445.200 710.233, 484.800 703.222, 503.500 699.923 C 522.200 696.625, 553.700 691.042, 573.500 687.516 C 611.816 680.693, 625.720 678.245, 693.370 666.415 C 721.059 661.573, 737.579 658.235, 740.023 656.988 C 745.917 653.982, 752.743 644.410, 750.554 642.221 C 750.028 641.695, 733.679 643.315, 666.500 650.549 C 648.900 652.444, 625.725 654.891, 615 655.986 C 604.275 657.080, 578.850 659.791, 558.500 662.010 C 518.617 666.357, 516.982 666.531, 473.500 671.043 C 457.550 672.698, 432.575 675.366, 418 676.972 C 365.904 682.713, 358.231 683.322, 352.517 682.175 C 335.714 678.800, 323.653 666.078, 321.068 649 C 319.745 640.259, 318.370 626.965, 296.564 412 C 292.966 376.525, 288.666 334.675, 287.010 319 C 282.064 272.189, 277.165 224.966, 276.481 217.500 C 275.757 209.599, 275.174 206.961, 274.183 207.086 C 273.807 207.134, 263.271 209.347, 250.769 212.005 M 652.500 233.908 C 651.400 234.379, 649.645 235.715, 648.599 236.877 C 646.891 238.777, 646.766 240.019, 647.366 249.174 C 647.733 254.774, 648.304 261.046, 648.634 263.111 C 649.323 267.424, 650.274 267.075, 633.155 268.797 C 625.220 269.595, 623.431 270.115, 621.305 272.241 C 616.712 276.833, 618.758 286.148, 624.686 287.636 C 626.150 288.003, 632.529 287.796, 638.864 287.176 C 645.198 286.555, 650.536 286.203, 650.726 286.393 C 650.916 286.583, 651.510 290.960, 652.046 296.119 C 652.582 301.279, 653.271 307.013, 653.577 308.862 C 654.895 316.834, 663.444 319.710, 669.077 314.077 C 672.408 310.746, 672.476 309.888, 670.647 294.213 C 669.258 282.308, 668.141 283.516, 681.500 282.480 C 696.494 281.318, 700 279.281, 700 271.732 C 700 268.950, 699.293 267.202, 697.404 265.314 C 694.580 262.489, 696.654 262.563, 670.012 264.335 C 667.290 264.516, 667.603 265.816, 665.532 245.708 C 665.034 240.876, 664.207 238.207, 662.666 236.457 C 660.281 233.749, 655.607 232.577, 652.500 233.908 M 184.450 287.465 C 161.092 293.783, 156.557 296.027, 152.977 303.044 C 149.286 310.280, 150.047 314.802, 162.455 359.362 C 168.755 381.988, 177.480 413.325, 181.844 429 C 200.157 494.780, 241.673 642.142, 267.577 733.314 C 275.518 761.261, 282.646 785.336, 283.418 786.814 C 286.755 793.201, 294.646 798, 301.813 798 C 305.588 798, 336.723 790.936, 368 782.984 C 404.178 773.785, 525.400 744, 526.660 744 C 527.979 744, 536.398 747.501, 603.890 776.116 C 620.605 783.202, 635.264 789, 636.466 789 C 639.182 789, 643 785.077, 643 782.287 C 643 781.141, 639.387 767.015, 634.972 750.896 C 630.556 734.778, 627.133 721.097, 627.364 720.494 C 627.595 719.891, 634.920 717.665, 643.642 715.547 C 674.907 707.953, 696.570 701.837, 700.663 699.448 C 705.396 696.685, 708.513 692.220, 709.527 686.750 C 710.054 683.912, 709.892 683.001, 708.861 683.005 C 706.898 683.013, 676.981 688.090, 644 694.013 C 628.325 696.828, 606.725 700.650, 596 702.506 C 585.275 704.361, 570.413 707.008, 562.974 708.386 C 555.534 709.765, 537.534 712.958, 522.974 715.482 C 508.413 718.007, 477.825 723.410, 455 727.489 C 413.206 734.959, 389.301 739.192, 352.500 745.640 C 327.388 750.039, 320.375 749.936, 310.389 745.020 C 302.112 740.945, 295.642 734.644, 292.349 727.451 C 289.858 722.010, 288.138 713.713, 270.493 622 C 261.904 577.361, 236.627 446.757, 225.495 389.500 C 221.432 368.600, 215.595 338.450, 212.525 322.500 C 209.455 306.550, 206.474 291.137, 205.901 288.250 C 205.019 283.808, 204.523 283.010, 202.679 283.062 C 201.481 283.096, 193.278 285.077, 184.450 287.465 M 560.780 297.043 C 550.778 299.502, 543.083 303.449, 533.604 310.982 C 527.119 316.135, 519.401 324.888, 516.029 330.912 C 515.291 332.232, 514.838 332.064, 513.066 329.811 C 506.714 321.735, 491.698 312.713, 479 309.342 C 470.641 307.123, 454.812 307.133, 446 309.364 C 425.951 314.441, 409.098 328.060, 400.047 346.500 C 390.688 365.570, 390.381 372.898, 396.466 432 C 399.042 457.025, 401.454 477.758, 401.825 478.074 C 402.196 478.390, 410.375 477.715, 420 476.574 L 437.500 474.500 437.285 472 C 436.472 462.571, 434.538 443.160, 432.452 423.500 C 427.577 377.551, 427.563 373.004, 432.259 362.745 C 435.687 355.257, 440.139 350.586, 447.222 347.047 C 458.961 341.181, 472.865 343.545, 481.236 352.830 L 484.972 356.974 517.549 353.487 C 535.466 351.569, 550.279 350, 550.467 350 C 550.655 350, 552.152 347.621, 553.793 344.714 C 560.412 332.984, 575.074 328.118, 588.712 333.124 C 596.560 336.005, 604.881 344.392, 607.902 352.468 C 610.451 359.279, 610.681 360.991, 616.108 413.500 C 618.382 435.500, 620.398 453.673, 620.589 453.884 C 620.780 454.096, 628.825 453.430, 638.468 452.404 L 656 450.540 656 447.494 C 656 445.818, 655.562 440.859, 655.026 436.474 C 654.490 432.088, 652.455 412.787, 650.504 393.583 C 646.047 349.704, 643.481 338.961, 634.190 325.280 C 628.640 317.106, 617.462 307.016, 609.078 302.611 C 594.790 295.102, 577.010 293.053, 560.780 297.043 M 541.500 365.089 C 537.650 365.545, 523.973 367.051, 511.107 368.435 C 498.241 369.820, 487.653 371.076, 487.579 371.226 C 486.577 373.269, 466.973 432.873, 466.984 433.845 C 466.993 434.584, 475.931 448.084, 486.846 463.845 C 520.764 512.816, 529 524.276, 529 522.495 C 529 521.548, 527.156 503.409, 524.902 482.186 L 520.805 443.598 516.751 440.001 C 513.120 436.779, 512.650 435.828, 512.239 430.866 C 511.541 422.455, 514.718 417.468, 522.332 415.022 C 530.714 412.329, 540 419.569, 540 428.798 C 540 433.618, 538.914 436.256, 535.357 440.077 L 532.958 442.654 534.492 457.577 C 535.336 465.785, 536.900 480.375, 537.967 490 C 539.034 499.625, 540.214 510.791, 540.589 514.814 C 540.964 518.837, 541.632 521.762, 542.074 521.314 C 543.338 520.031, 556.315 489.206, 576.660 439.155 L 584.118 420.810 574.732 404.655 C 569.571 395.770, 562.232 382.991, 558.424 376.259 C 554.131 368.668, 550.930 364.063, 550 364.138 C 549.175 364.205, 545.350 364.633, 541.500 365.089" stroke="none" fill="#000000" fill-rule="evenodd"/>
</svg>